<svg width="20" height="18" viewBox="0 0 20 18" fill="none" xmlns="http://www.w3.org/2000/svg">
<path d="M14.9994 12.5075C16.2126 13.117 17.2529 14.0951 18.0121 15.3181C18.1625 15.5603 18.2376 15.6814 18.2636 15.8491C18.3165 16.1899 18.0834 16.6088 17.7661 16.7437C17.6098 16.8101 17.4341 16.8101 17.0827 16.8101M13.3327 8.92022C14.5676 8.30664 15.4161 7.03248 15.4161 5.56006C15.4161 4.08764 14.5676 2.81348 13.3327 2.19989M11.6661 5.56006C11.6661 7.63114 9.98714 9.31006 7.91606 9.31006C5.84497 9.31006 4.16606 7.63114 4.16606 5.56006C4.16606 3.48898 5.84506 1.81006 7.91606 1.81006C9.98714 1.81006 11.6661 3.48898 11.6661 5.56006ZM2.13214 15.092C3.46072 13.0972 5.55722 11.8101 7.91606 11.8101C10.275 11.8101 12.3715 13.0972 13.7001 15.092C13.9911 15.5291 14.1366 15.7476 14.1199 16.0266C14.1068 16.244 13.9644 16.5101 13.7907 16.6414C13.5677 16.8101 13.261 16.8101 12.6475 16.8101H3.18472C2.57122 16.8101 2.26447 16.8101 2.04139 16.6414C1.86781 16.5101 1.72531 16.244 1.71222 16.0266C1.69556 15.7476 1.84106 15.5291 2.13214 15.092Z" stroke="#9DA4AE" stroke-width="1.66667" stroke-linecap="round" stroke-linejoin="round"/>
</svg>
