<svg width="18" height="18" viewBox="0 0 18 18" fill="none" xmlns="http://www.w3.org/2000/svg">
<path d="M5.66667 11.6602V13.3268M9 8.32682V13.3268M12.3333 4.99349V13.3268M5.5 16.6602H12.5C13.9002 16.6602 14.6002 16.6602 15.135 16.3877C15.6054 16.148 15.9878 15.7656 16.2275 15.2952C16.5 14.7603 16.5 14.0603 16.5 12.6602V5.66016C16.5 4.25999 16.5 3.55999 16.2275 3.02516C15.9878 2.55476 15.6054 2.17232 15.135 1.93266C14.6002 1.66016 13.9002 1.66016 12.5 1.66016H5.5C4.09983 1.66016 3.39983 1.66016 2.865 1.93266C2.39462 2.17234 2.01218 2.55477 1.7725 3.02516C1.5 3.55999 1.5 4.25999 1.5 5.66016V12.6602C1.5 14.0603 1.5 14.7603 1.7725 15.2952C2.01217 15.7655 2.39461 16.148 2.865 16.3877C3.39983 16.6602 4.09983 16.6602 5.5 16.6602Z" stroke="#9DA4AE" stroke-width="1.66667" stroke-linecap="round" stroke-linejoin="round"/>
</svg>
