<svg width="21" height="21" viewBox="0 0 21 21" fill="none" xmlns="http://www.w3.org/2000/svg">
<g clip-path="url(#clip0_2_6837)">
<path opacity="0.12" d="M15.9805 7.3866C17.3612 7.3866 18.4805 6.26735 18.4805 4.8866C18.4805 3.50593 17.3612 2.3866 15.9805 2.3866C14.5997 2.3866 13.4805 3.50593 13.4805 4.8866C13.4805 6.26735 14.5997 7.3866 15.9805 7.3866ZM5.98047 13.2199C7.36122 13.2199 8.48047 12.1007 8.48047 10.7199C8.48047 9.33918 7.36122 8.21993 5.98047 8.21993C4.59972 8.21993 3.48047 9.33918 3.48047 10.7199C3.48047 12.1007 4.59972 13.2199 5.98047 13.2199ZM15.9805 19.0533C17.3612 19.0533 18.4805 17.934 18.4805 16.5533C18.4805 15.1725 17.3612 14.0533 15.9805 14.0533C14.5997 14.0533 13.4805 15.1725 13.4805 16.5533C13.4805 17.934 14.5997 19.0533 15.9805 19.0533Z" fill="#9DA4AE"/>
<path d="M8.1388 11.9783L13.8305 15.2949M13.8221 6.14493L8.1388 9.4616M18.4805 4.8866C18.4805 6.26735 17.3612 7.3866 15.9805 7.3866C14.5997 7.3866 13.4805 6.26735 13.4805 4.8866C13.4805 3.50593 14.5997 2.3866 15.9805 2.3866C17.3612 2.3866 18.4805 3.50593 18.4805 4.8866ZM8.48047 10.7199C8.48047 12.1007 7.36122 13.2199 5.98047 13.2199C4.59972 13.2199 3.48047 12.1007 3.48047 10.7199C3.48047 9.33918 4.59972 8.21993 5.98047 8.21993C7.36122 8.21993 8.48047 9.33918 8.48047 10.7199ZM18.4805 16.5533C18.4805 17.934 17.3612 19.0533 15.9805 19.0533C14.5997 19.0533 13.4805 17.934 13.4805 16.5533C13.4805 15.1725 14.5997 14.0533 15.9805 14.0533C17.3612 14.0533 18.4805 15.1725 18.4805 16.5533Z" stroke="#9DA4AE" stroke-width="1.66667" stroke-linecap="round" stroke-linejoin="round"/>
</g>
<defs>
<clipPath id="clip0_2_6837">
<rect width="20" height="20" fill="white" transform="translate(0.980469 0.719971)"/>
</clipPath>
</defs>
</svg>
