<svg width="21" height="21" viewBox="0 0 21 21" fill="none" xmlns="http://www.w3.org/2000/svg">
<g clip-path="url(#clip0_2_6598)">
<path opacity="0.12" d="M8.48047 3.17999H7.48047C6.0803 3.17999 5.3803 3.17999 4.84547 3.45249C4.37508 3.69217 3.99265 4.07461 3.75297 4.54499C3.48047 5.07983 3.48047 5.77983 3.48047 7.17999V14.18C3.48047 15.5802 3.48047 16.2802 3.75297 16.815C3.99263 17.2854 4.37507 17.6678 4.84547 17.9075C5.3803 18.18 6.0803 18.18 7.48047 18.18H8.48047V3.17999Z" fill="#9DA4AE"/>
<path d="M15.5638 9.84666H11.3971M15.5638 13.18H11.3971M15.5638 6.51333H11.3971M8.48047 3.17999V18.18M7.48047 3.17999H14.4805C15.8806 3.17999 16.5806 3.17999 17.1155 3.45249C17.5859 3.69216 17.9683 4.0746 18.208 4.54499C18.4805 5.07983 18.4805 5.77983 18.4805 7.17999V14.18C18.4805 15.5802 18.4805 16.2802 18.208 16.815C17.9683 17.2854 17.5859 17.6678 17.1155 17.9075C16.5806 18.18 15.8806 18.18 14.4805 18.18H7.48047C6.0803 18.18 5.3803 18.18 4.84547 17.9075C4.37507 17.6678 3.99263 17.2854 3.75297 16.815C3.48047 16.2802 3.48047 15.5802 3.48047 14.18V7.17999C3.48047 5.77983 3.48047 5.07983 3.75297 4.54499C3.99265 4.07461 4.37508 3.69217 4.84547 3.45249C5.3803 3.17999 6.0803 3.17999 7.48047 3.17999Z" stroke="#9DA4AE" stroke-width="1.66667" stroke-linecap="round" stroke-linejoin="round"/>
</g>
<defs>
<clipPath id="clip0_2_6598">
<rect width="20" height="20" fill="white" transform="translate(0.980469 0.679993)"/>
</clipPath>
</defs>
</svg>
