<svg width="25" height="25" viewBox="0 0 25 25" fill="none" xmlns="http://www.w3.org/2000/svg">
<g clip-path="url(#clip0_4_4101)">
<path d="M3.23828 9.30599C3.23828 7.79452 3.23828 7.03874 3.53246 6.46138C3.79121 5.95352 4.20411 5.54063 4.71197 5.28187C5.28913 4.98779 6.04491 4.98779 7.55648 4.98779H15.1133C16.6248 4.98779 17.3806 4.98779 17.9579 5.28197C18.4657 5.54066 18.8787 5.95359 19.1374 6.46148C19.4315 7.03874 19.4315 7.79452 19.4315 9.30599V16.8628C19.4315 18.3743 19.4315 19.1301 19.1374 19.7075C18.8786 20.2153 18.4658 20.6281 17.9579 20.8869C17.3806 21.181 16.6248 21.181 15.1133 21.181H7.55648C6.04501 21.181 5.28923 21.181 4.71187 20.8869C4.20402 20.6281 3.79112 20.2153 3.53236 19.7075C3.23828 19.1301 3.23828 18.3743 3.23828 16.8628V9.30599Z" fill="white" fill-opacity="0.01"/>
<path d="M19.4315 10.3855H3.23828M14.9334 3.18848V6.78698M7.73641 3.18848V6.78698M7.55648 21.181H15.1133C16.6248 21.181 17.3806 21.181 17.9579 20.8868C18.4658 20.6281 18.8786 20.2152 19.1374 19.7074C19.4315 19.13 19.4315 18.3742 19.4315 16.8628V9.30593C19.4315 7.79446 19.4315 7.03867 19.1374 6.46131C18.8786 5.95346 18.4658 5.54057 17.9579 5.2818C17.3806 4.98773 16.6248 4.98773 15.1133 4.98773H7.55648C6.04501 4.98773 5.28923 4.98773 4.71187 5.2819C4.20401 5.54066 3.79111 5.95356 3.53236 6.46141C3.23828 7.03857 3.23828 7.79436 3.23828 9.30593V16.8628C3.23828 18.3742 3.23828 19.13 3.53246 19.7074C3.79115 20.2152 4.20408 20.6281 4.71197 20.8868C5.28913 21.181 6.04491 21.181 7.55648 21.181Z" stroke="#6C737F" stroke-width="1.99943" stroke-linecap="round" stroke-linejoin="round"/>
</g>
<defs>
<clipPath id="clip0_4_4101">
<rect width="23.99" height="23.99" fill="white" transform="translate(0.238281 0.189941)"/>
</clipPath>
</defs>
</svg>
