<svg width="25" height="25" viewBox="0 0 25 25" fill="none" xmlns="http://www.w3.org/2000/svg">
<path d="M2.88138 15.4136C2.91937 15.0714 2.93846 14.9004 2.99024 14.7405C3.03622 14.5986 3.10099 14.4636 3.18316 14.3392C3.27562 14.1988 3.39737 14.0772 3.64077 13.8337L14.5683 2.90622C15.4823 1.9922 16.9641 1.9922 17.8781 2.90622C18.7922 3.82014 18.7922 5.30202 17.8781 6.21594L6.95059 17.1435C6.70719 17.3869 6.58544 17.5086 6.4451 17.6012C6.32062 17.6833 6.18562 17.7481 6.04376 17.794C5.88383 17.8458 5.7129 17.8648 5.37065 17.9029L2.57031 18.214L2.88138 15.4136Z" fill="white" fill-opacity="0.01"/>
<path d="M15.3958 8.69837L12.0859 5.38845M2.57031 18.214L5.37065 17.9028C5.7128 17.8647 5.88393 17.8458 6.04376 17.794C6.18571 17.7481 6.32065 17.6832 6.4451 17.6012C6.58544 17.5086 6.70719 17.3868 6.95059 17.1434L17.8781 6.216C18.7922 5.30198 18.7922 3.8201 17.8781 2.90608C16.9641 1.99216 15.4823 1.99216 14.5683 2.90608L3.64087 13.8336C3.39737 14.0771 3.27562 14.1988 3.18306 14.3391C3.10096 14.4636 3.03606 14.5986 2.99014 14.7404C2.93846 14.9004 2.91947 15.0714 2.88138 15.4136L2.57031 18.214Z" stroke="#6C737F" stroke-width="1.99943" stroke-linecap="round" stroke-linejoin="round"/>
</svg>
