<svg width="21" height="21" viewBox="0 0 21 21" fill="none" xmlns="http://www.w3.org/2000/svg">
<g clip-path="url(#clip0_4_2370)">
<path opacity="0.12" d="M4.3125 7.4502C4.3125 6.05003 4.3125 5.35003 4.585 4.8152C4.82468 4.34481 5.20712 3.96237 5.6775 3.7227C6.21233 3.4502 6.91233 3.4502 8.3125 3.4502H13.6458C15.046 3.4502 15.746 3.4502 16.2808 3.7227C16.7512 3.96236 17.1337 4.3448 17.3733 4.8152C17.6458 5.35003 17.6458 6.05003 17.6458 7.4502V18.4502L15.3542 16.7835L13.2708 18.4502L10.9792 16.7835L8.6875 18.4502L6.60417 16.7835L4.3125 18.4502V7.4502Z" fill="#9DA4AE"/>
<path d="M8.47917 9.7002L10.1458 11.3669L13.8958 7.61686M17.6458 18.4502V7.4502C17.6458 6.05003 17.6458 5.35003 17.3733 4.8152C17.1337 4.3448 16.7512 3.96236 16.2808 3.7227C15.746 3.4502 15.046 3.4502 13.6458 3.4502H8.3125C6.91233 3.4502 6.21233 3.4502 5.6775 3.7227C5.20712 3.96238 4.82468 4.34481 4.585 4.8152C4.3125 5.35003 4.3125 6.05003 4.3125 7.4502V18.4502L6.60417 16.7835L8.6875 18.4502L10.9792 16.7835L13.2708 18.4502L15.3542 16.7835L17.6458 18.4502Z" stroke="#9DA4AE" stroke-width="1.66667" stroke-linecap="round" stroke-linejoin="round"/>
</g>
<defs>
<clipPath id="clip0_4_2370">
<rect width="20" height="20" fill="white" transform="translate(0.980469 0.950195)"/>
</clipPath>
</defs>
</svg>
