<svg width="21" height="21" viewBox="0 0 21 21" fill="none" xmlns="http://www.w3.org/2000/svg">
<path opacity="0.12" d="M15.9805 2.76953H5.98047V17.7695H15.9805V2.76953Z" fill="#9DA4AE"/>
<path d="M8.89583 6.10286H13.0625M8.89583 9.4362H13.0625M8.89583 12.7695H13.0625M15.9792 17.7695V5.4362C15.9792 4.50278 15.9792 4.03603 15.7975 3.67953C15.6377 3.36593 15.3828 3.11097 15.0692 2.9512C14.7127 2.76953 14.2459 2.76953 13.3125 2.76953H8.64583C7.71242 2.76953 7.24567 2.76953 6.88917 2.9512C6.57557 3.11098 6.32062 3.36594 6.16083 3.67953C5.97917 4.03603 5.97917 4.50286 5.97917 5.4362V17.7695M17.6458 17.7695H4.3125" stroke="#9DA4AE" stroke-width="1.66667" stroke-linecap="round" stroke-linejoin="round"/>
</svg>
