<svg width="21" height="21" viewBox="0 0 21 21" fill="none" xmlns="http://www.w3.org/2000/svg">
<g clip-path="url(#clip0_2_6533)">
<path opacity="0.12" d="M14.5508 17.53C16.0597 17.53 16.8142 17.53 17.3711 17.2285C17.8604 16.9637 18.2474 16.5431 18.4707 16.0335C18.7249 15.4535 18.6622 14.7016 18.537 13.1979L17.9536 6.19786C17.8458 4.90403 17.7919 4.25703 17.5054 3.76745C17.253 3.33628 16.8773 2.99059 16.4267 2.77495C15.915 2.53003 15.2658 2.53003 13.9675 2.53003H7.99513C6.69679 2.53003 6.04763 2.53003 5.53588 2.77486C5.08523 2.99049 4.70952 3.33619 4.45721 3.76736C4.17071 4.25703 4.11679 4.90403 4.00896 6.19786L3.42563 13.1979C3.30029 14.7016 3.23763 15.4535 3.49188 16.0335C3.71521 16.5431 4.10216 16.9637 4.59146 17.2285C5.14829 17.53 5.90279 17.53 7.41179 17.53H14.5508Z" fill="#9DA4AE"/>
<path d="M14.3146 6.6967C14.3146 7.13444 14.2284 7.56789 14.0609 7.97231C13.8934 8.37673 13.6478 8.74418 13.3383 9.0537C13.0288 9.36326 12.6613 9.60882 12.2569 9.77635C11.8525 9.94389 11.419 10.0301 10.9813 10.0301C10.5435 10.0301 10.1101 9.94389 9.70567 9.77635C9.30125 9.60882 8.9338 9.36326 8.62429 9.0537C8.31476 8.74417 8.06923 8.37672 7.90171 7.9723C7.73419 7.56789 7.64796 7.13443 7.64796 6.6967M4.00896 6.19786L3.42563 13.1979C3.30029 14.7016 3.23763 15.4535 3.49188 16.0335C3.71521 16.5431 4.10216 16.9637 4.59146 17.2285C5.14829 17.53 5.90279 17.53 7.41179 17.53H14.5508C16.0597 17.53 16.8142 17.53 17.3711 17.2285C17.8604 16.9637 18.2474 16.5431 18.4707 16.0335C18.7249 15.4535 18.6622 14.7016 18.537 13.1979L17.9536 6.19786C17.8458 4.90403 17.7919 4.25703 17.5054 3.76745C17.253 3.33628 16.8773 2.99059 16.4267 2.77495C15.915 2.53003 15.2658 2.53003 13.9675 2.53003H7.99513C6.69679 2.53003 6.04763 2.53003 5.53588 2.77486C5.08523 2.99049 4.70952 3.33619 4.45721 3.76736C4.17071 4.25703 4.11679 4.90403 4.00896 6.19786Z" stroke="#9DA4AE" stroke-width="1.66667" stroke-linecap="round" stroke-linejoin="round"/>
</g>
<defs>
<clipPath id="clip0_2_6533">
<rect width="20" height="20" fill="white" transform="translate(0.980469 0.0300293)"/>
</clipPath>
</defs>
</svg>
