<svg width="25" height="25" viewBox="0 0 25 25" fill="none" xmlns="http://www.w3.org/2000/svg">
<g clip-path="url(#clip0_4_4989)">
<path d="M11.9732 19.6821C16.3897 19.6821 19.9699 16.1018 19.9699 11.6854C19.9699 7.26893 16.3897 3.68872 11.9732 3.68872C7.55677 3.68872 3.97656 7.26893 3.97656 11.6854C3.97656 16.1018 7.55677 19.6821 11.9732 19.6821Z" fill="white" fill-opacity="0.01"/>
<path d="M21.9691 21.6812L17.6209 17.333M19.9699 11.6854C19.9699 16.1018 16.3897 19.6821 11.9732 19.6821C7.55677 19.6821 3.97656 16.1018 3.97656 11.6854C3.97656 7.26893 7.55677 3.68872 11.9732 3.68872C16.3897 3.68872 19.9699 7.26893 19.9699 11.6854Z" stroke="#111927" stroke-width="1.99943" stroke-linecap="round" stroke-linejoin="round"/>
</g>
<defs>
<clipPath id="clip0_4_4989">
<rect width="23.99" height="23.99" fill="white" transform="translate(0.976562 0.689941)"/>
</clipPath>
</defs>
</svg>
