<svg width="21" height="21" viewBox="0 0 21 21" fill="none" xmlns="http://www.w3.org/2000/svg">
<g clip-path="url(#clip0_2_6855)">
<g clip-path="url(#clip1_2_6855)">
<path opacity="0.12" d="M10.9818 18.9734C15.5841 18.9734 19.3151 15.2424 19.3151 10.64C19.3151 6.03762 15.5841 2.3067 10.9818 2.3067C6.37935 2.3067 2.64844 6.03762 2.64844 10.64C2.64844 15.2424 6.37935 18.9734 10.9818 18.9734Z" fill="#9DA4AE"/>
<path d="M14.3151 10.64L10.9818 7.3067M10.9818 7.3067L7.64844 10.64M10.9818 7.3067V14.9734C10.9818 16.1323 10.9818 16.7118 11.4405 17.3605C11.7454 17.7916 12.6229 18.3236 13.1461 18.3945C13.9335 18.5012 14.2325 18.3452 14.8306 18.0333C17.4957 16.643 19.3151 13.854 19.3151 10.64C19.3151 6.03762 15.5841 2.3067 10.9818 2.3067C6.37935 2.3067 2.64844 6.03762 2.64844 10.64C2.64844 13.7245 4.32427 16.4176 6.8151 17.8585" stroke="#9DA4AE" stroke-width="1.66667" stroke-linecap="round" stroke-linejoin="round"/>
</g>
</g>
<defs>
<clipPath id="clip0_2_6855">
<rect width="20" height="20" fill="white" transform="translate(0.980469 0.640015)"/>
</clipPath>
<clipPath id="clip1_2_6855">
<rect width="20" height="20" fill="white" transform="translate(0.980469 0.640015)"/>
</clipPath>
</defs>
</svg>
