<svg width="65" height="65" viewBox="0 0 65 65" fill="none" xmlns="http://www.w3.org/2000/svg">
<rect x="0.140625" y="0.509766" width="63.99" height="63.99" rx="31.995" fill="#E5E7EB"/>
<g clip-path="url(#clip0_4_4744)">
<path d="M37.1326 28.5065L32.1346 23.5085L27.1367 28.5065" fill="white" fill-opacity="0.01"/>
<path d="M41.1331 35.5035V36.703C41.1331 38.3825 41.1331 39.2222 40.8063 39.8637C40.5188 40.428 40.0601 40.8867 39.4958 41.1742C38.8543 41.501 38.0146 41.501 36.3351 41.501H27.9386C26.2591 41.501 25.4195 41.501 24.7779 41.1742C24.2137 40.8867 23.755 40.428 23.4675 39.8637C23.1406 39.2222 23.1406 38.3825 23.1406 36.703V35.5035M37.1348 28.5065L32.1369 23.5085M32.1369 23.5085L27.139 28.5065M32.1369 23.5085V35.5035" stroke="black" stroke-width="1.99943" stroke-linecap="round" stroke-linejoin="round"/>
</g>
<defs>
<clipPath id="clip0_4_4744">
<rect width="23.99" height="23.99" fill="white" transform="translate(20.1406 20.5098)"/>
</clipPath>
</defs>
</svg>
